HIERARCHY
ROOT Hips
{
	OFFSET 0.00000 0.00000 0.00000
	CHANNELS 6 Xposition Yposition Zposition Zrotation Yrotation Xrotation 
	JOINT LHipJoint
	{
		OFFSET 0 0 0
		CHANNELS 3 Zrotation Yrotation Xrotation
		JOINT LeftHip
		{
			OFFSET 1.27966 -1.91611 0.81506
			CHANNELS 3 Zrotation Yrotation Xrotation
			JOINT LeftKnee
			{
				OFFSET 2.49511 -6.85528 0.00000
				CHANNELS 3 Zrotation Yrotation Xrotation
				JOINT LeftAnkle
				{
					OFFSET 2.67286 -7.34045 0.00000
					CHANNELS 3 Zrotation Yrotation Xrotation
					JOINT LeftToe
					{
						OFFSET 0.22740 -0.62477 2.32102
						CHANNELS 3 Zrotation Yrotation Xrotation
						End Site
						{
							OFFSET 0.00000 -0.00000 1.20480
						}
					}
				}
			}
		}
	}
	JOINT RHipJoint
	{
		OFFSET 0 0 0
		CHANNELS 3 Zrotation Yrotation Xrotation
		JOINT RightHip
		{
			OFFSET -1.09666 -1.91611 0.81505
			CHANNELS 3 Zrotation Yrotation Xrotation
			JOINT RightKnee
			{
				OFFSET -2.51373 -6.90642 0.00000
				CHANNELS 3 Zrotation Yrotation Xrotation
				JOINT RightAnkle
				{
					OFFSET -2.70173 -7.42295 0.00000
					CHANNELS 3 Zrotation Yrotation Xrotation
					JOINT RightToe
					{
						OFFSET -0.22214 -0.61032 2.18267
						CHANNELS 3 Zrotation Yrotation Xrotation
						End Site
						{
							OFFSET -0.00000 -0.00000 1.13683
						}
					}
				}
			}
		}
	}
	JOINT lowerback
	{
		OFFSET 0 0 0
		CHANNELS 3 Zrotation Yrotation Xrotation
		JOINT Chest
		{
			OFFSET -0.00990 2.16804 -0.08389
			CHANNELS 3 Zrotation Yrotation Xrotation
			JOINT Chest2
			{
				OFFSET 0.06407 2.15456 0.07285
				CHANNELS 3 Zrotation Yrotation Xrotation
				JOINT lowerneck
				{
					OFFSET 0 0 0
					CHANNELS 3 Zrotation Yrotation Xrotation
					JOINT Neck
					{
						OFFSET -0.16931 1.61602 0.24462
						CHANNELS 3 Zrotation Yrotation Xrotation
						JOINT Head
						{
							OFFSET 0.21556 1.63376 -0.33896
							CHANNELS 3 Zrotation Yrotation Xrotation
							End Site
							{
								OFFSET 0.08444 1.69244 -0.14900
							}
						}
					}
				}
				JOINT LeftCollar
				{
					OFFSET 0 0 0
					CHANNELS 3 Zrotation Yrotation Xrotation
					JOINT LeftShoulder
					{
						OFFSET 2.89000 1.40150 -0.54392
CHANNELS 3 Zrotation Xrotation Yrotation
						JOINT LeftElbow
						{
OFFSET 0 -5.107550 0.000000
CHANNELS 3 Zrotation Xrotation Yrotation
							JOINT LeftWrist
							{
OFFSET 0 -3.362530 0.000000
CHANNELS 3 Zrotation Xrotation Yrotation
								JOINT lhand
								{
									OFFSET 0 0 0
CHANNELS 3 Zrotation Xrotation Yrotation
									JOINT LFingers
									{
OFFSET 0 -0.619090 0.000000
CHANNELS 3 Zrotation Xrotation Yrotation
										End Site
										{
OFFSET 0 -0.499120 0.000000
										}
									}
								}
								JOINT LThumb
								{
OFFSET 0 0.000000 0.000000
CHANNELS 3 Zrotation Xrotation Yrotation
									End Site
									{
OFFSET 0 -0.506750 0.506750
									}
								}
							}
						}
					}
				}
				JOINT RightCollar
				{
					OFFSET 0 0 0
					CHANNELS 3 Zrotation Yrotation Xrotation
					JOINT RightShoulder
					{
						OFFSET -2.65771 1.70968 -0.54312
CHANNELS 3 Zrotation Xrotation Yrotation
						JOINT RightElbow
						{
OFFSET 0 -5.273870 0.000000
CHANNELS 3 Zrotation Xrotation Yrotation
							JOINT RightWrist
							{
OFFSET 0 -3.401440 0.000000
CHANNELS 3 Zrotation Xrotation Yrotation
								JOINT rhand
								{
									OFFSET 0 0 0
CHANNELS 3 Zrotation Xrotation Yrotation
									JOINT RFingers
									{
OFFSET 0 -0.742820 0.000000
CHANNELS 3 Zrotation Xrotation Yrotation
										End Site
										{
OFFSET 0 -0.598880 0.000000
										}
									}
								}
								JOINT RThumb
								{
OFFSET 0 0.000000 0.000000
CHANNELS 3 Zrotation Xrotation Yrotation
									End Site
									{
OFFSET 0 -0.608030 0.608030
									}
								}
							}
						}
					}
				}
			}
		}
	}
}
MOTION
Frames: 8
Frame Time: 0.008333333333333333
13.625446 17.957899 10.505111 -535.328538 -10.128330 -184.469172 0.000000 0.000000 0.000000 -12.529174 -4.036088 -2.365680 9.429556 17.074187 57.561133 0.556306 -3.310725 15.651094 1.043692 -6.479555 -18.188610 0.000000 0.000000 0.000000 23.375631 3.480269 -11.644409 -2.191923 -9.254623 26.595357 -0.268517 1.573641 -9.361065 -0.833030 5.822021 -16.269010 0.779152 -0.049814 10.991578 4.264719 -0.072644 1.552618 4.050277 -0.149567 -4.537855 -13.251041 -0.439976 -19.041658 5.342724 -0.441529 35.707676 4.301273 -2.171711 15.903053 0.000000 0.000000 0.000000 0.508344 6.555149 -24.691983 21.984319 -32.958821 6.577557 16.845714 2.910049 -22.365899 0.000000 0.000000 0.000000 -7.125000 0.000000 0.000000 -12.487584 52.812463 2.441188 0.000000 0.000000 0.000000 -5.980311 4.914883 7.998775 -10.877837 -18.100601 -1.737869 -21.823195 3.256883 -13.019357 0.000000 0.000000 0.000000 7.125000 0.000000 0.000000 3.784818 16.013771 2.599482
13.530624 17.981726 8.667944 -533.580000 -12.917740 -185.738743 0.000000 0.000000 0.000000 -8.872568 -1.722648 -18.374279 10.971864 17.920867 62.689620 -0.109176 -7.171759 -1.768865 1.398223 -7.478757 -21.142450 0.000000 0.000000 0.000000 26.709508 -0.279419 -3.457926 -1.891906 -8.637185 24.666779 -0.604310 -0.465194 -14.862372 -1.041666 6.490303 -18.214127 2.548297 1.603698 11.231889 4.197595 2.303802 1.913866 2.621665 0.983188 -4.364926 -15.416875 -1.413154 -18.264295 7.441432 -1.711795 34.764560 5.367738 -2.549423 15.473810 0.000000 0.000000 0.000000 -2.403178 8.693874 -23.618277 18.546550 -28.850841 4.810296 12.643484 5.449528 -28.342003 0.000000 0.000000 0.000000 -7.125000 0.000000 0.000000 -19.964903 57.778746 6.415860 0.000000 0.000000 0.000000 -9.770118 0.123530 11.237645 -12.174077 -20.065221 -2.161639 -22.483285 2.718459 -11.800721 0.000000 0.000000 0.000000 7.125000 0.000000 0.000000 3.276354 17.251223 2.159461
13.162672 17.906101 7.043596 -531.644255 -17.163936 -185.211578 0.000000 0.000000 0.000000 -9.410289 0.476246 -27.401508 5.101403 13.492768 41.250342 0.398795 -0.600991 -11.734094 0.641054 -5.119456 -14.250103 0.000000 0.000000 0.000000 29.109328 -3.665284 2.964897 -1.288462 -7.191905 20.285527 -0.763122 -3.426843 -18.093193 -1.629419 8.046033 -22.854693 4.354905 2.189377 10.711055 4.166284 3.309576 1.483472 1.439426 1.458976 -4.448167 -13.821974 -1.825786 -16.586420 6.279961 -2.235828 32.170818 4.412510 -2.459944 13.948868 0.000000 0.000000 0.000000 -4.258956 10.019463 -18.013851 15.175820 -24.389656 3.298728 11.422524 8.378872 -28.151097 0.000000 0.000000 0.000000 -7.125000 0.000000 0.000000 -21.078134 57.341244 6.567750 0.000000 0.000000 0.000000 -14.109950 -4.911106 13.819868 -15.029940 -24.187629 -3.238344 -24.859662 -3.097953 -10.681417 0.000000 0.000000 0.000000 7.125000 0.000000 0.000000 1.556299 18.239072 0.991442
12.379827 17.863844 5.406251 -530.381132 -20.169837 -183.172548 0.000000 0.000000 0.000000 -11.191176 -2.391457 -29.449820 1.730431 8.280215 23.568640 0.507782 5.855506 -16.867035 0.592780 -4.929199 -13.706717 0.000000 0.000000 0.000000 29.112047 -6.923134 9.433313 -0.578394 -4.869955 13.538009 -0.546323 -4.180083 -16.115368 -2.473250 9.788769 -28.295567 5.417868 2.752648 8.915730 4.380502 4.137896 0.557139 1.021192 1.860994 -4.355081 -14.532697 -2.340739 -16.763916 6.497668 -2.528776 31.195720 4.563199 -2.512687 13.629501 0.000000 0.000000 0.000000 -5.520829 9.090785 -7.173284 11.425436 -18.936151 1.912663 10.145433 15.946290 -25.751787 0.000000 0.000000 0.000000 -7.125000 0.000000 0.000000 -20.821821 54.850917 5.205701 0.000000 0.000000 0.000000 -16.451968 -6.602764 15.139196 -18.772152 -29.134400 -4.919498 -26.694636 -9.066934 -12.272117 0.000000 0.000000 0.000000 7.125000 0.000000 0.000000 0.374933 16.296065 0.254780
11.224147 17.916956 3.523485 -532.945477 -23.917410 -183.060568 0.000000 0.000000 0.000000 -16.692097 1.760014 -26.500543 2.481064 9.803382 28.342453 0.066195 3.844354 -7.745045 0.268335 -3.328677 -9.195544 0.000000 0.000000 0.000000 25.652658 -6.769825 10.827772 -1.865197 -8.573661 24.474248 0.155658 -8.830042 -8.959414 -2.641334 10.089835 -29.268777 2.552671 2.826896 8.776057 3.412981 4.010693 0.676832 1.623976 1.899566 -4.283175 -15.300501 -3.072114 -16.277529 7.893828 -3.674541 29.937320 5.050018 -2.811084 13.188840 0.000000 0.000000 0.000000 -3.801228 9.141472 -8.712407 11.798530 -19.501722 2.034564 13.203858 14.902343 -30.079277 0.000000 0.000000 0.000000 -7.125000 0.000000 0.000000 -20.626915 59.526141 7.511259 0.000000 0.000000 0.000000 -12.006887 -2.486412 13.957174 -22.399788 -33.425505 -6.804909 -26.322392 -8.941719 -12.461348 0.000000 0.000000 0.000000 7.125000 0.000000 0.000000 0.645877 16.130227 0.441041
9.898695 17.955065 1.725750 -538.500913 -30.663836 -183.275908 0.000000 0.000000 0.000000 -24.437601 4.936323 -15.961064 2.392383 9.639514 27.817129 0.339587 -2.559603 -10.419070 0.161598 -2.589446 -7.137783 0.000000 0.000000 0.000000 16.716730 -6.782381 -4.352526 -8.755211 -16.644337 55.234621 -0.186412 -21.108314 16.292661 -0.017011 -0.833908 2.291998 -2.386793 1.645549 9.363119 2.368430 1.932361 1.638936 3.571131 0.951338 -3.707397 -15.832321 -3.611864 -16.301065 7.647449 -4.142724 29.657743 4.957953 -3.071016 13.168570 0.000000 0.000000 0.000000 -1.746580 5.792366 -16.222264 13.434569 -21.917052 2.615627 12.489709 10.349881 -29.582086 0.000000 0.000000 0.000000 -7.125000 0.000000 0.000000 -21.000314 58.901748 7.340136 0.000000 0.000000 0.000000 -7.580099 2.632903 14.996625 -21.508416 -32.415569 -6.320921 -20.202502 -4.147748 -13.499158 0.000000 0.000000 0.000000 7.125000 0.000000 0.000000 4.919430 15.666726 3.420891
8.790449 17.793017 0.216900 -541.864960 -36.662267 -183.399726 0.000000 0.000000 0.000000 -27.677028 5.432955 -6.158973 2.358056 9.575123 27.611432 0.727039 -5.862753 -15.195744 0.282910 -3.420270 -9.451162 0.000000 0.000000 0.000000 11.732430 -2.956440 -19.102313 -12.784421 -18.702869 68.454486 0.121302 -6.290210 -1.130354 -0.189286 2.767027 -7.632966 -5.273726 0.544474 10.260281 2.300295 0.110295 2.280469 5.379710 0.042926 -3.389432 -16.512214 -3.676473 -16.296252 7.381695 -4.099863 30.668586 5.000711 -3.243814 13.612231 0.000000 0.000000 0.000000 0.060438 -0.249971 -22.561854 16.723642 -26.491959 3.963337 14.398693 7.729969 -27.912402 0.000000 0.000000 0.000000 -7.125000 0.000000 0.000000 -17.868714 57.750209 5.697409 0.000000 0.000000 0.000000 -4.279631 3.188569 9.139799 -15.049303 -24.213736 -3.246745 -20.623670 0.965704 -12.428115 0.000000 0.000000 0.000000 7.125000 0.000000 0.000000 4.592613 16.756882 3.083454
7.819968 17.722806 -1.282390 -544.691699 -42.238137 -179.896756 0.000000 0.000000 0.000000 -28.502712 6.956339 1.312574 1.586908 7.946185 22.551022 0.777320 -9.581507 -16.111328 0.624905 -5.058389 -14.075305 0.000000 0.000000 0.000000 10.109904 4.108536 -26.360538 -6.097903 -14.516687 45.362426 -0.127842 -7.718881 -13.400100 -1.250895 7.079521 -19.955914 -8.220201 -0.550679 9.947838 2.312541 -1.607615 1.784360 7.300398 -0.751170 -3.419487 -16.146427 -4.032017 -15.938584 7.632444 -4.592336 28.908127 4.914065 -3.243661 12.864474 0.000000 0.000000 0.000000 1.523220 -3.991301 -27.823604 21.523328 -32.433910 6.328374 17.542499 4.106285 -30.732967 0.000000 0.000000 0.000000 -7.125000 0.000000 0.000000 -16.473869 61.171515 6.590309 0.000000 0.000000 0.000000 -2.508680 5.007820 5.297167 -12.070575 -19.910398 -2.126298 -19.605378 5.829294 -12.920124 0.000000 0.000000 0.000000 7.125000 0.000000 0.000000 5.312592 16.331989 3.620070
